<?xml version="1.0"?>
<svg xmlns="http://www.w3.org/2000/svg" id="Solid" height="512px" viewBox="0 0 512 512" width="512px"><g><path d="m160 480h16v-280a8 8 0 0 1 8-8h144a8 8 0 0 1 8 8v280h16v-384h-192zm53.251-360.324c11.549-4.95 26.732-7.676 42.749-7.676s31.2 2.726 42.749 7.676c18.49 7.924 21.251 18.641 21.251 24.324s-2.761 16.4-21.251 24.324c-11.549 4.95-26.732 7.676-42.749 7.676s-31.2-2.726-42.749-7.676c-18.49-7.924-21.251-18.641-21.251-24.324s2.761-16.4 21.251-24.324z" data-original="#000000" class="active-path" data-old_color="#000000" fill="#F9BC20"/><path d="m192 368h128v16h-128z" data-original="#000000" class="active-path" data-old_color="#000000" fill="#F9BC20"/><ellipse cx="256" cy="144" rx="48" ry="16" data-original="#000000" class="active-path" data-old_color="#000000" fill="#F9BC20"/><path d="m192 352h128v-144h-128zm88-112h16a8 8 0 0 1 0 16h-16a8 8 0 0 1 0-16zm-64 0h32a8 8 0 0 1 0 16h-32a8 8 0 0 1 0-16zm0 32h80a8 8 0 0 1 0 16h-80a8 8 0 0 1 0-16zm0 32h48a8 8 0 0 1 0 16h-48a8 8 0 0 1 0-16z" data-original="#000000" class="active-path" data-old_color="#000000" fill="#F9BC20"/><path d="m264 400h24v80h-24z" data-original="#000000" class="active-path" data-old_color="#000000" fill="#F9BC20"/><path d="m304 400h16v80h-16z" data-original="#000000" class="active-path" data-old_color="#000000" fill="#F9BC20"/><path d="m224 400h24v80h-24z" data-original="#000000" class="active-path" data-old_color="#000000" fill="#F9BC20"/><path d="m368 192h112v16h-112z" data-original="#000000" class="active-path" data-old_color="#000000" fill="#F9BC20"/><path d="m424 304h56v48h-56z" data-original="#000000" class="active-path" data-old_color="#000000" fill="#F9BC20"/><path d="m424 368h56v48h-56z" data-original="#000000" class="active-path" data-old_color="#000000" fill="#F9BC20"/><path d="m368 432h104v48h-104z" data-original="#000000" class="active-path" data-old_color="#000000" fill="#F9BC20"/><path d="m32 368h56v48h-56z" data-original="#000000" class="active-path" data-old_color="#000000" fill="#F9BC20"/><path d="m144 64h224v16h-224z" data-original="#000000" class="active-path" data-old_color="#000000" fill="#F9BC20"/><path d="m40 432h104v48h-104z" data-original="#000000" class="active-path" data-old_color="#000000" fill="#F9BC20"/><path d="m160 32h192v16h-192z" data-original="#000000" class="active-path" data-old_color="#000000" fill="#F9BC20"/><path d="m40 224h104v64h-104z" data-original="#000000" class="active-path" data-old_color="#000000" fill="#F9BC20"/><path d="m32 192h112v16h-112z" data-original="#000000" class="active-path" data-old_color="#000000" fill="#F9BC20"/><path d="m104 304h40v48h-40z" data-original="#000000" class="active-path" data-old_color="#000000" fill="#F9BC20"/><path d="m104 368h40v48h-40z" data-original="#000000" class="active-path" data-old_color="#000000" fill="#F9BC20"/><path d="m368 368h40v48h-40z" data-original="#000000" class="active-path" data-old_color="#000000" fill="#F9BC20"/><path d="m368 224h104v64h-104z" data-original="#000000" class="active-path" data-old_color="#000000" fill="#F9BC20"/><path d="m192 400h16v80h-16z" data-original="#000000" class="active-path" data-old_color="#000000" fill="#F9BC20"/><path d="m368 304h40v48h-40z" data-original="#000000" class="active-path" data-old_color="#000000" fill="#F9BC20"/><path d="m32 304h56v48h-56z" data-original="#000000" class="active-path" data-old_color="#000000" fill="#F9BC20"/></g> </svg>
