<?xml version="1.0"?>
<svg xmlns="http://www.w3.org/2000/svg" height="512px" viewBox="0 0 480.07285 480" width="512px"><g><path d="m448 24.035156h-2.480469c-7.273437-16.132812-22.222656-23.9999998-45.519531-23.9999998-21.847656 0-39.023438 9.2265628-45.695312 23.9999998h-2.304688c-8.542969-.191406-16.796875 3.117188-22.839844 9.160156-6.042968 6.046876-9.351562 14.296876-9.160156 22.839844v8c0 4.417969 3.582031 8 8 8h144c4.417969 0 8-3.582031 8-8v-8c.605469-8.65625-2.570312-17.152344-8.710938-23.289062-6.136718-6.136719-14.632812-9.3125-23.289062-8.710938zm-112 32c-.199219-4.300781 1.421875-8.488281 4.464844-11.53125 3.046875-3.046875 7.234375-4.667968 11.535156-4.46875h8c3.714844.003906 6.945312-2.554687 7.792969-6.175781 3.0625-13.160156 19.261719-17.824219 32.207031-17.824219 23.414062 0 29.390625 8.800782 32.359375 18.402344 1.050781 3.335938 4.144531 5.601562 7.640625 5.597656h8c4.386719-.546875 8.785156.960938 11.910156 4.089844 3.128906 3.128906 4.636719 7.523438 4.089844 11.910156zm0 0" data-original="#000000" class="active-path" data-old_color="#000000" fill="#F9BC20"/><path d="m216 152.035156h144c4.417969 0 8-3.582031 8-8v-8c.605469-8.65625-2.570312-17.152344-8.710938-23.289062-6.136718-6.136719-14.632812-9.3125-23.289062-8.710938h-2.480469c-7.273437-16.132812-22.222656-24-45.519531-24-21.847656 0-39.023438 9.226563-45.695312 24h-2.304688c-8.542969-.191406-16.796875 3.117188-22.839844 9.160156-6.042968 6.046876-9.351562 14.296876-9.160156 22.839844v8c0 4.417969 3.582031 8 8 8zm24-32h8c3.714844.003906 6.945312-2.554687 7.792969-6.175781 3.0625-13.160156 19.261719-17.824219 32.207031-17.824219 23.414062 0 29.390625 8.800782 32.359375 18.402344 1.050781 3.335938 4.144531 5.601562 7.640625 5.597656h8c4.386719-.546875 8.785156.960938 11.910156 4.089844 3.128906 3.128906 4.636719 7.523438 4.089844 11.910156h-128c-.199219-4.300781 1.421875-8.488281 4.464844-11.53125 3.046875-3.046875 7.234375-4.667968 11.535156-4.46875zm0 0" data-original="#000000" class="active-path" data-old_color="#000000" fill="#F9BC20"/><path d="m472 400.035156h-75.359375l-125.695313-220c-1.433593-2.480468-4.082031-4.003906-6.945312-4h-72v-104c0-2.902344-1.574219-5.578125-4.113281-6.992187l-72-40c-2.417969-1.34375-5.355469-1.34375-7.773438 0l-72 40c-2.539062 1.414062-4.113281 4.089843-4.113281 6.992187v136h-24c-4.417969 0-8 3.582032-8 8v32c0 4.417969 3.582031 8 8 8h8v200c0 4.417969 3.582031 8 8 8h32c4.417969 0 8-3.582031 8-8v-200h16v224h16v-24h32v24h16v-224h16v200c0 4.417969 3.582031 8 8 8h32c4.417969 0 8-3.582031 8-8v-200h8c4.417969 0 8-3.582031 8-8v-1.65625l121.039062 213.601563c1.421876 2.507812 4.078126 4.054687 6.960938 4.054687h120c4.417969 0 8-3.582031 8-8v-48c0-4.417968-3.582031-8-8-8zm-328-192h-64v-80c0-17.671875 14.328125-32 32-32s32 14.328125 32 32zm-96-131.285156 64-35.5625 64 35.5625v131.285156h-16v-80c0-26.507812-21.492188-48-48-48s-48 21.492188-48 48v80h-16zm-32 147.285156h32v16h-32zm32 32v144h-16v-144zm0 192h-16v-32h16zm16-224h96v16h-96zm32 152h32v24h-32zm0-16v-24h32v24zm0-40v-24h32v24zm0 120v-24h32v24zm32-160h-32v-24h32zm64 168h-16v-32h16zm0-48h-16v-144h16zm16-160h-32v-16h32zm256 208h-107.335938l-133.703124-235.941406-.105469.054688c-1.371094-2.511719-3.996094-4.082032-6.855469-4.113282h-24v-16h67.359375l125.695313 220c1.433593 2.480469 4.082031 4.007813 6.945312 4h72zm0 0" data-original="#000000" class="active-path" data-old_color="#000000" fill="#F9BC20"/><path d="m256 432.035156h16v16h-16zm0 0" data-original="#000000" class="active-path" data-old_color="#000000" fill="#F9BC20"/><path d="m296 456.035156h16v16h-16zm0 0" data-original="#000000" class="active-path" data-old_color="#000000" fill="#F9BC20"/><path d="m224 464.035156h16v16h-16zm0 0" data-original="#000000" class="active-path" data-old_color="#000000" fill="#F9BC20"/></g> </svg>
